<svg width="184" height="46" viewBox="0 0 184 46" fill="none" xmlns="http://www.w3.org/2000/svg">
<path fill-rule="evenodd" clip-rule="evenodd" d="M37.9141 25.3809C36.6586 28.7702 33.3846 31.1758 29.5586 31.1758C24.6463 31.1758 20.6641 27.1936 20.6641 22.2812C20.6641 17.3689 24.6463 13.3867 29.5586 13.3867C33.3857 13.3867 36.6594 15.7907 37.9141 19.1816C39.2562 19.1816 42.8507 19.1816 43.8438 19.1816C42.4201 12.6366 36.5303 7.72656 29.5586 7.72656C22.5847 7.72656 16.7564 12.6314 15.3352 19.1796C15.1524 19.1796 13.9205 19.1764 12.5873 19.1764C14.0495 11.1313 21.0917 5.03125 29.5586 5.03125C39.0854 5.03125 46.8086 12.7544 46.8086 22.2812C46.8086 31.8081 39.0854 39.5312 29.5586 39.5312C21.091 39.5312 14.0483 33.4301 12.5869 25.384C13.7765 25.384 15.2918 25.3811 15.3348 25.3811C16.7553 31.9302 22.5841 36.8359 29.5586 36.8359C36.5319 36.8359 42.4218 31.9283 43.8438 25.3809C42.3518 25.3809 39.4004 25.3809 37.9141 25.3809Z" fill="#446BB3"/>
<path fill-rule="evenodd" clip-rule="evenodd" d="M100.81 32.5651V23.2799C100.81 21.7276 100.091 20.4338 98.4526 20.4338C96.1529 20.4338 95.0892 22.1874 95.0892 24.0272V32.3351L91.4383 32.5651V17.7317L94.8879 17.3867V19.399H94.9454C96.1817 17.7317 97.389 17.2717 99.4301 17.2717C102.448 17.2717 104.461 19.1978 104.461 22.3024V32.3351L100.81 32.5651ZM84.6538 13.8221L87.1262 11.3787L89.5983 13.8221L87.1262 16.2656L84.6538 13.8221ZM75.367 32.7951C71.0549 32.7951 67.2604 29.4317 67.2604 25.0335C67.2604 20.6351 71.0549 17.2717 75.367 17.2717C79.679 17.2717 83.4736 20.6351 83.4736 25.0335C83.4736 29.4317 79.679 32.7951 75.367 32.7951ZM75.367 20.6063C72.8947 20.6063 70.7101 22.5324 70.7101 25.0335C70.7101 27.5344 72.8947 29.4604 75.367 29.4604C77.8392 29.4604 80.024 27.5344 80.024 25.0335C80.024 22.5324 77.8392 20.6063 75.367 20.6063ZM61.8542 28.9142C63.4354 28.9142 64.6715 28.1094 65.7063 27.2756L65.189 32.0476C64.3553 32.5363 62.8604 32.7951 61.9692 32.7951C55.8749 32.7951 51.8217 28.2244 51.8217 22.4749C51.8217 16.7831 55.9612 12.1547 61.8542 12.1547C62.8029 12.1547 64.2403 12.3847 65.0453 12.8735L65.6776 17.4442C64.6428 16.6106 63.3204 16.0356 61.6819 16.0356C58.2035 16.0356 55.7887 19.1403 55.7887 22.4749C55.7887 26.1545 58.5483 28.9142 61.8542 28.9142ZM88.8797 32.3351L85.2288 32.5651V17.7317L88.8797 17.3867V32.3351Z" fill="white"/>
<path fill-rule="evenodd" clip-rule="evenodd" d="M123.724 32.7951C119.411 32.7951 115.617 29.4317 115.617 25.0335C115.617 20.6351 119.411 17.2717 123.724 17.2717C128.036 17.2717 131.83 20.6351 131.83 25.0335C131.83 29.4317 128.036 32.7951 123.724 32.7951ZM123.724 20.6063C121.251 20.6063 119.066 22.5324 119.066 25.0335C119.066 27.5344 121.251 29.4604 123.724 29.4604C126.196 29.4604 128.381 27.5344 128.381 25.0335C128.381 22.5324 126.196 20.6063 123.724 20.6063ZM114.323 29.4604C114.725 29.4604 115.185 29.4317 115.587 29.4029L114.696 32.6801C114.351 32.7663 113.719 32.7951 113.259 32.7951C110.183 32.7951 107.941 31.1565 107.941 27.9081V20.8938H105.698L106.503 17.7317H107.941V15.202L111.592 13.5635V17.7317H114.898V20.8938H111.592V27.1319C111.592 28.5406 112.195 29.4604 114.323 29.4604Z" fill="#446BB3"/>
<path fill-rule="evenodd" clip-rule="evenodd" d="M169.896 37.3946L166.303 36.8771L169.292 30.524L162.939 18.0192L166.533 17.2717L171.161 26.6146L175.07 17.2717L178.606 18.0192L169.896 37.3946ZM159.201 31.4153C158.194 32.2776 156.901 32.7951 155.55 32.7951C152.445 32.7951 150.03 30.984 150.03 27.6494C150.03 25.0048 152.244 22.6762 154.975 22.6762C156.556 22.6762 157.591 22.9349 158.999 23.6535C159.028 23.3374 159.086 23.0499 159.086 22.6762C159.086 20.6926 157.648 20.3189 155.952 20.3189C154.515 20.3189 153.135 20.6639 151.813 21.1814L152.819 17.6742C154.199 17.4155 155.636 17.2717 157.045 17.2717C159.66 17.2717 162.535 18.4217 162.535 21.3826V32.3351L159.201 32.6801V31.4153ZM156.355 25.5508C155.061 25.5508 153.681 26.3558 153.681 27.6494C153.681 28.9717 155.061 29.748 156.355 29.748C157.648 29.748 159.028 28.9717 159.028 27.6494C159.028 26.3558 157.648 25.5508 156.355 25.5508ZM141.663 32.7951C140.226 32.7951 138.702 32.3639 137.351 31.2428V37.0496L133.7 37.5096V17.7317L137.15 17.2717V19.3128C138.674 17.7892 139.68 17.2717 141.692 17.2717C145.86 17.2717 148.908 20.9801 148.908 25.1198C148.908 28.828 145.918 32.7951 141.663 32.7951ZM141.232 20.6064C138.789 20.6064 137.006 22.6474 137.006 25.0335C137.006 27.4194 138.789 29.4605 141.232 29.4605C143.676 29.4605 145.458 27.4194 145.458 25.0335C145.458 22.6474 143.676 20.6064 141.232 20.6064Z" fill="white"/>
</svg>
